<svg xmlns="http://www.w3.org/2000/svg" xmlns:xlink="http://www.w3.org/1999/xlink" width="3779" zoomAndPan="magnify" viewBox="0 0 2835 2268.00001" height="3023" preserveAspectRatio="xMidYMid meet" version="1.0"><defs><g/><clipPath id="b7d9fefe9b"><path d="M 0.625 0 L 2834.375 0 L 2834.375 2267 L 0.625 2267 Z M 0.625 0 " clip-rule="nonzero"/></clipPath></defs><g clip-path="url(#b7d9fefe9b)"><path fill="#ffffff" d="M 0.625 0 L 2834.375 0 L 2834.375 2274.496094 L 0.625 2274.496094 Z M 0.625 0 " fill-opacity="1" fill-rule="nonzero"/><path fill="#ffffff" d="M 0.625 0 L 2834.375 0 L 2834.375 2267 L 0.625 2267 Z M 0.625 0 " fill-opacity="1" fill-rule="nonzero"/><path fill="#ffffff" d="M 0.625 0 L 2834.375 0 L 2834.375 2267 L 0.625 2267 Z M 0.625 0 " fill-opacity="1" fill-rule="nonzero"/></g><g fill="#012c66" fill-opacity="1"><g transform="translate(324.788199, 1233.340436)"><g><path d="M 251.949219 -172.957031 L 12.90625 -172.957031 L 12.90625 0 L 53.695312 0 L 53.695312 -132.171875 L 112.035156 -131.914062 L 112.035156 0 L 152.824219 0 L 152.824219 -131.914062 L 211.164062 -132.171875 L 211.164062 0 L 251.949219 0 Z M 251.949219 -172.957031 "/></g></g></g><g fill="#012c66" fill-opacity="1"><g transform="translate(655.671257, 1233.340436)"><g><path d="M 53.695312 -172.957031 L 12.90625 -172.957031 L 12.90625 0 L 185.867188 0 L 185.867188 -172.957031 L 145.078125 -172.957031 L 145.078125 -40.789062 L 53.695312 -40.789062 Z M 53.695312 -172.957031 "/></g></g></g><g fill="#012c66" fill-opacity="1"><g transform="translate(920.484033, 1233.340436)"><g><path d="M 185.867188 0 L 185.867188 -40.789062 L 53.695312 -40.789062 L 53.695312 -172.957031 L 12.90625 -172.957031 L 12.90625 0 Z M 185.867188 0 "/></g></g></g><g fill="#012c66" fill-opacity="1"><g transform="translate(1185.29681, 1233.340436)"><g><path d="M 12.90625 -172.957031 L 12.90625 -132.171875 L 78.992188 -132.171875 L 78.992188 0 L 119.78125 0 L 119.78125 -132.171875 L 185.867188 -132.171875 L 185.867188 -172.957031 Z M 12.90625 -172.957031 "/></g></g></g><g fill="#012c66" fill-opacity="1"><g transform="translate(1450.109587, 1233.340436)"><g><path d="M 53.695312 -172.957031 L 12.90625 -172.957031 L 12.90625 0 L 53.695312 0 Z M 53.695312 -172.957031 "/></g></g></g><g fill="#012c66" fill-opacity="1"><g transform="translate(1582.781803, 1233.340436)"><g><path d="M 251.949219 -172.957031 L 12.90625 -172.957031 L 12.90625 0 L 53.695312 0 L 53.695312 -132.171875 L 112.035156 -131.914062 L 112.035156 0 L 152.824219 0 L 152.824219 -131.914062 L 211.164062 -132.171875 L 211.164062 0 L 251.949219 0 Z M 251.949219 -172.957031 "/></g></g></g><g fill="#012c66" fill-opacity="1"><g transform="translate(1913.66486, 1233.340436)"><g><path d="M 53.695312 -172.957031 L 12.90625 -172.957031 L 12.90625 0 L 53.695312 0 Z M 53.695312 -172.957031 "/></g></g></g><g fill="#012c66" fill-opacity="1"><g transform="translate(2046.337076, 1233.340436)"><g><path d="M 145.078125 -172.957031 L 145.078125 -79.765625 L 53.695312 -144.5625 L 53.695312 -172.957031 L 12.90625 -172.957031 L 12.90625 0 L 53.695312 0 L 53.695312 -92.933594 L 145.078125 -28.136719 L 145.078125 0 L 184.058594 0 L 185.867188 1.289062 L 185.867188 -172.957031 Z M 145.078125 -172.957031 "/></g></g></g><g fill="#012c66" fill-opacity="1"><g transform="translate(2311.149852, 1233.340436)"><g><path d="M 53.695312 -40.789062 L 53.695312 -106.871094 L 12.90625 -106.871094 L 12.90625 0 L 185.867188 0 L 185.867188 -172.957031 L 12.90625 -172.957031 L 12.90625 -132.171875 L 145.078125 -132.171875 L 145.078125 -40.789062 Z M 53.695312 -40.789062 "/></g></g></g></svg>