<svg xmlns="http://www.w3.org/2000/svg" xmlns:xlink="http://www.w3.org/1999/xlink" width="3779" zoomAndPan="magnify" viewBox="0 0 2835 2268.00001" height="3023" preserveAspectRatio="xMidYMid meet" version="1.0"><defs><g/><clipPath id="ede2e4b4f4"><path d="M 0.625 0 L 2834.375 0 L 2834.375 2267 L 0.625 2267 Z M 0.625 0 " clip-rule="nonzero"/></clipPath><clipPath id="4379ae85cc"><path d="M 822.242188 1461.378906 L 913.699219 1461.378906 L 913.699219 1552.835938 L 822.242188 1552.835938 Z M 822.242188 1461.378906 " clip-rule="nonzero"/></clipPath><clipPath id="0a0de05657"><path d="M 1251.960938 774.929688 L 1334.425781 774.929688 L 1334.425781 857.394531 L 1251.960938 857.394531 Z M 1251.960938 774.929688 " clip-rule="nonzero"/></clipPath><clipPath id="6011a189ff"><path d="M 1611.964844 670.882812 L 1738.65625 670.882812 L 1738.65625 797.574219 L 1611.964844 797.574219 Z M 1611.964844 670.882812 " clip-rule="nonzero"/></clipPath><clipPath id="812dd93b6d"><path d="M 2030.230469 1445.816406 L 2180.167969 1445.816406 L 2180.167969 1595.75 L 2030.230469 1595.75 Z M 2030.230469 1445.816406 " clip-rule="nonzero"/></clipPath><clipPath id="30487f36f8"><path d="M 1455.644531 1069.777344 L 1515.617188 1069.777344 L 1515.617188 1129.753906 L 1455.644531 1129.753906 Z M 1455.644531 1069.777344 " clip-rule="nonzero"/></clipPath></defs><g clip-path="url(#ede2e4b4f4)"><path fill="#ffffff" d="M 0.625 0 L 2834.375 0 L 2834.375 2274.496094 L 0.625 2274.496094 Z M 0.625 0 " fill-opacity="1" fill-rule="nonzero"/><path fill="#ffffff" d="M 0.625 0 L 2834.375 0 L 2834.375 2267 L 0.625 2267 Z M 0.625 0 " fill-opacity="1" fill-rule="nonzero"/><path fill="#ffffff" d="M 0.625 0 L 2834.375 0 L 2834.375 2267 L 0.625 2267 Z M 0.625 0 " fill-opacity="1" fill-rule="nonzero"/></g><path stroke-linecap="butt" transform="matrix(0.39309, -0.638559, 0.638404, 0.392995, 889.568383, 1466.603931)" fill="none" stroke-linejoin="miter" d="M -0.000484392 3.998883 L 965.769101 4.002041 " stroke="#38b6ff" stroke-width="8" stroke-opacity="1" stroke-miterlimit="4"/><g clip-path="url(#4379ae85cc)"><path fill="#38b6ff" d="M 867.96875 1461.378906 C 842.714844 1461.378906 822.242188 1481.851562 822.242188 1507.109375 C 822.242188 1532.363281 842.714844 1552.835938 867.96875 1552.835938 C 893.226562 1552.835938 913.699219 1532.363281 913.699219 1507.109375 C 913.699219 1481.851562 893.226562 1461.378906 867.96875 1461.378906 " fill-opacity="1" fill-rule="nonzero"/></g><g clip-path="url(#0a0de05657)"><path fill="#38b6ff" d="M 1293.195312 774.929688 C 1270.421875 774.929688 1251.960938 793.390625 1251.960938 816.164062 C 1251.960938 838.933594 1270.421875 857.394531 1293.195312 857.394531 C 1315.964844 857.394531 1334.425781 838.933594 1334.425781 816.164062 C 1334.425781 793.390625 1315.964844 774.929688 1293.195312 774.929688 " fill-opacity="1" fill-rule="nonzero"/></g><path stroke-linecap="butt" transform="matrix(-0.409921, -0.627761, 0.627697, -0.409879, 1438.92854, 1044.729702)" fill="none" stroke-linejoin="miter" d="M 0.00171752 3.998208 L 305.968481 3.998492 " stroke="#38b6ff" stroke-width="8" stroke-opacity="1" stroke-miterlimit="4"/><path stroke-linecap="butt" transform="matrix(-0.359694, -0.657966, 0.657793, -0.3596, 2066.622532, 1456.434431)" fill="none" stroke-linejoin="miter" d="M -0.000201695 4.000196 L 1011.734203 4.001822 " stroke="#38b6ff" stroke-width="8" stroke-opacity="1" stroke-miterlimit="4"/><path stroke-linecap="butt" transform="matrix(0.33069, -0.672722, 0.672778, 0.330718, 1519.537555, 1043.760625)" fill="none" stroke-linejoin="miter" d="M 0.00281336 4.001296 L 378.041952 3.99816 " stroke="#38b6ff" stroke-width="8" stroke-opacity="1" stroke-miterlimit="4"/><g clip-path="url(#6011a189ff)"><path fill="#38b6ff" d="M 1675.308594 670.882812 C 1640.324219 670.882812 1611.964844 699.242188 1611.964844 734.230469 C 1611.964844 769.214844 1640.324219 797.574219 1675.308594 797.574219 C 1710.296875 797.574219 1738.65625 769.214844 1738.65625 734.230469 C 1738.65625 699.242188 1710.296875 670.882812 1675.308594 670.882812 " fill-opacity="1" fill-rule="nonzero"/></g><g clip-path="url(#812dd93b6d)"><path fill="#38b6ff" d="M 2105.199219 1445.816406 C 2063.796875 1445.816406 2030.230469 1479.378906 2030.230469 1520.78125 C 2030.230469 1562.1875 2063.796875 1595.75 2105.199219 1595.75 C 2146.601562 1595.75 2180.167969 1562.1875 2180.167969 1520.78125 C 2180.167969 1479.378906 2146.601562 1445.816406 2105.199219 1445.816406 " fill-opacity="1" fill-rule="nonzero"/></g><path stroke-linecap="butt" transform="matrix(0.630524, -0.405439, 0.405462, 0.630559, 905.029421, 1479.90014)" fill="none" stroke-linejoin="miter" d="M 0.00156728 4.000213 L 834.06113 4.000755 " stroke="#38b6ff" stroke-width="8" stroke-opacity="1" stroke-miterlimit="4"/><path stroke-linecap="butt" transform="matrix(-0.619829, -0.421554, 0.421595, -0.619889, 2041.518441, 1481.11566)" fill="none" stroke-linejoin="miter" d="M 0.00140862 3.998051 L 807.086174 3.999401 " stroke="#38b6ff" stroke-width="8" stroke-opacity="1" stroke-miterlimit="4"/><g fill="#012c66" fill-opacity="1"><g transform="translate(324.788199, 1335.973996)"><g><path d="M 251.949219 -172.957031 L 12.90625 -172.957031 L 12.90625 0 L 53.695312 0 L 53.695312 -132.171875 L 112.035156 -131.914062 L 112.035156 0 L 152.824219 0 L 152.824219 -131.914062 L 211.164062 -132.171875 L 211.164062 0 L 251.949219 0 Z M 251.949219 -172.957031 "/></g></g></g><g fill="#012c66" fill-opacity="1"><g transform="translate(655.671257, 1335.973996)"><g><path d="M 53.695312 -172.957031 L 12.90625 -172.957031 L 12.90625 0 L 185.867188 0 L 185.867188 -172.957031 L 145.078125 -172.957031 L 145.078125 -40.789062 L 53.695312 -40.789062 Z M 53.695312 -172.957031 "/></g></g></g><g fill="#012c66" fill-opacity="1"><g transform="translate(920.484033, 1335.973996)"><g><path d="M 185.867188 0 L 185.867188 -40.789062 L 53.695312 -40.789062 L 53.695312 -172.957031 L 12.90625 -172.957031 L 12.90625 0 Z M 185.867188 0 "/></g></g></g><g fill="#012c66" fill-opacity="1"><g transform="translate(1185.29681, 1335.973996)"><g><path d="M 12.90625 -172.957031 L 12.90625 -132.171875 L 78.992188 -132.171875 L 78.992188 0 L 119.78125 0 L 119.78125 -132.171875 L 185.867188 -132.171875 L 185.867188 -172.957031 Z M 12.90625 -172.957031 "/></g></g></g><g fill="#012c66" fill-opacity="1"><g transform="translate(1450.109587, 1335.973996)"><g><path d="M 53.695312 -172.957031 L 12.90625 -172.957031 L 12.90625 0 L 53.695312 0 Z M 53.695312 -172.957031 "/></g></g></g><g fill="#012c66" fill-opacity="1"><g transform="translate(1582.781803, 1335.973996)"><g><path d="M 251.949219 -172.957031 L 12.90625 -172.957031 L 12.90625 0 L 53.695312 0 L 53.695312 -132.171875 L 112.035156 -131.914062 L 112.035156 0 L 152.824219 0 L 152.824219 -131.914062 L 211.164062 -132.171875 L 211.164062 0 L 251.949219 0 Z M 251.949219 -172.957031 "/></g></g></g><g fill="#012c66" fill-opacity="1"><g transform="translate(1913.66486, 1335.973996)"><g><path d="M 53.695312 -172.957031 L 12.90625 -172.957031 L 12.90625 0 L 53.695312 0 Z M 53.695312 -172.957031 "/></g></g></g><g fill="#012c66" fill-opacity="1"><g transform="translate(2046.337076, 1335.973996)"><g><path d="M 145.078125 -172.957031 L 145.078125 -79.765625 L 53.695312 -144.5625 L 53.695312 -172.957031 L 12.90625 -172.957031 L 12.90625 0 L 53.695312 0 L 53.695312 -92.933594 L 145.078125 -28.136719 L 145.078125 0 L 184.058594 0 L 185.867188 1.289062 L 185.867188 -172.957031 Z M 145.078125 -172.957031 "/></g></g></g><g fill="#012c66" fill-opacity="1"><g transform="translate(2311.149852, 1335.973996)"><g><path d="M 53.695312 -40.789062 L 53.695312 -106.871094 L 12.90625 -106.871094 L 12.90625 0 L 185.867188 0 L 185.867188 -172.957031 L 12.90625 -172.957031 L 12.90625 -132.171875 L 145.078125 -132.171875 L 145.078125 -40.789062 Z M 53.695312 -40.789062 "/></g></g></g><g clip-path="url(#30487f36f8)"><path fill="#38b6ff" d="M 1485.628906 1069.777344 C 1469.070312 1069.777344 1455.644531 1083.203125 1455.644531 1099.765625 C 1455.644531 1116.328125 1469.070312 1129.753906 1485.628906 1129.753906 C 1502.191406 1129.753906 1515.617188 1116.328125 1515.617188 1099.765625 C 1515.617188 1083.203125 1502.191406 1069.777344 1485.628906 1069.777344 " fill-opacity="1" fill-rule="nonzero"/></g><g fill="#000000" fill-opacity="1"><g transform="translate(1130.805864, 1432.607656)"><g><path d="M 35.648438 0 L 41.574219 0 L 25.128906 -44.617188 L 18.347656 -44.617188 L 1.902344 0 L 7.828125 0 L 11.628906 -10.679688 L 31.816406 -10.679688 Z M 13.4375 -15.6875 L 21.738281 -38.914062 L 30.039062 -15.6875 Z M 13.4375 -15.6875 "/></g></g></g><g fill="#000000" fill-opacity="1"><g transform="translate(1174.276331, 1432.607656)"><g><path d="M 7.003906 0 L 12.675781 0 L 12.675781 -44.617188 L 7.003906 -44.617188 Z M 7.003906 0 "/></g></g></g><g fill="#000000" fill-opacity="1"><g transform="translate(1193.952141, 1432.607656)"><g/></g></g><g fill="#000000" fill-opacity="1"><g transform="translate(1210.808036, 1432.607656)"><g><path d="M 34.445312 -44.617188 L 21.167969 -7.097656 L 7.859375 -44.617188 L 1.902344 -44.617188 L 18.253906 0 L 24.082031 0 L 40.433594 -44.617188 Z M 34.445312 -44.617188 "/></g></g></g><g fill="#000000" fill-opacity="1"><g transform="translate(1253.137878, 1432.607656)"><g><path d="M 7.003906 0 L 12.675781 0 L 12.675781 -44.617188 L 7.003906 -44.617188 Z M 7.003906 0 "/></g></g></g><g fill="#000000" fill-opacity="1"><g transform="translate(1272.813688, 1432.607656)"><g><path d="M 20.820312 0.601562 C 29.535156 0.601562 36.570312 -3.515625 36.570312 -12.074219 C 36.570312 -21.136719 28.425781 -23.226562 21.230469 -25.128906 C 15.433594 -26.617188 10.363281 -28.011719 10.363281 -32.988281 C 10.363281 -38.246094 15.050781 -40.308594 19.679688 -40.308594 C 24.84375 -40.308594 29.214844 -38.027344 30.578125 -33.019531 L 35.871094 -34.382812 C 34.191406 -41.859375 27.316406 -45.21875 19.457031 -45.21875 C 11.535156 -45.21875 4.660156 -41.132812 4.660156 -32.894531 C 4.660156 -24.652344 11.566406 -22.53125 18.539062 -20.660156 C 24.75 -18.980469 30.675781 -17.523438 30.769531 -11.914062 C 30.863281 -6.304688 25.953125 -4.277344 20.914062 -4.277344 C 14.863281 -4.277344 10.265625 -7.257812 8.90625 -12.546875 L 3.328125 -11.21875 C 4.847656 -3.835938 11.535156 0.601562 20.820312 0.601562 Z M 20.820312 0.601562 "/></g></g></g><g fill="#000000" fill-opacity="1"><g transform="translate(1313.084107, 1432.607656)"><g><path d="M 7.003906 0 L 12.675781 0 L 12.675781 -44.617188 L 7.003906 -44.617188 Z M 7.003906 0 "/></g></g></g><g fill="#000000" fill-opacity="1"><g transform="translate(1332.759916, 1432.607656)"><g><path d="M 26.109375 0.601562 C 38.566406 0.601562 48.261719 -8.050781 48.261719 -22.339844 C 48.261719 -36.570312 38.566406 -45.21875 26.109375 -45.21875 C 13.53125 -45.21875 3.898438 -36.570312 3.898438 -22.339844 C 3.898438 -8.050781 13.53125 0.601562 26.109375 0.601562 Z M 26.109375 -4.753906 C 16.859375 -4.753906 9.539062 -11.089844 9.539062 -22.339844 C 9.539062 -33.464844 16.859375 -39.800781 26.109375 -39.800781 C 35.300781 -39.800781 42.589844 -33.464844 42.589844 -22.339844 C 42.589844 -11.089844 35.300781 -4.753906 26.109375 -4.753906 Z M 26.109375 -4.753906 "/></g></g></g><g fill="#000000" fill-opacity="1"><g transform="translate(1384.911803, 1432.607656)"><g><path d="M 36.980469 -44.617188 L 36.980469 -8.683594 L 12.929688 -44.617188 L 7.003906 -44.617188 L 7.003906 0 L 12.582031 0 L 12.582031 -36.09375 L 36.632812 0 L 42.621094 0 L 42.621094 -44.617188 Z M 36.980469 -44.617188 "/></g></g></g><g fill="#000000" fill-opacity="1"><g transform="translate(1434.528969, 1432.607656)"><g/></g></g><g fill="#000000" fill-opacity="1"><g transform="translate(1451.384864, 1432.607656)"><g><path d="M 20.820312 0.601562 C 29.535156 0.601562 36.570312 -3.515625 36.570312 -12.074219 C 36.570312 -21.136719 28.425781 -23.226562 21.230469 -25.128906 C 15.433594 -26.617188 10.363281 -28.011719 10.363281 -32.988281 C 10.363281 -38.246094 15.050781 -40.308594 19.679688 -40.308594 C 24.84375 -40.308594 29.214844 -38.027344 30.578125 -33.019531 L 35.871094 -34.382812 C 34.191406 -41.859375 27.316406 -45.21875 19.457031 -45.21875 C 11.535156 -45.21875 4.660156 -41.132812 4.660156 -32.894531 C 4.660156 -24.652344 11.566406 -22.53125 18.539062 -20.660156 C 24.75 -18.980469 30.675781 -17.523438 30.769531 -11.914062 C 30.863281 -6.304688 25.953125 -4.277344 20.914062 -4.277344 C 14.863281 -4.277344 10.265625 -7.257812 8.90625 -12.546875 L 3.328125 -11.21875 C 4.847656 -3.835938 11.535156 0.601562 20.820312 0.601562 Z M 20.820312 0.601562 "/></g></g></g><g fill="#000000" fill-opacity="1"><g transform="translate(1491.655283, 1432.607656)"><g><path d="M 32.003906 -41.957031 C 29.40625 -43.761719 25.730469 -44.617188 20.722656 -44.617188 L 7.003906 -44.617188 L 7.003906 0 L 12.675781 0 L 12.675781 -17.332031 L 20.722656 -17.332031 C 25.890625 -17.332031 29.660156 -18.410156 32.257812 -20.660156 C 35.300781 -23.003906 36.789062 -26.839844 36.789062 -31.65625 C 36.789062 -36.472656 35.207031 -39.894531 32.003906 -41.957031 Z M 28.710938 -24.71875 C 26.902344 -22.878906 23.988281 -22.277344 19.996094 -22.277344 L 12.675781 -22.277344 L 12.675781 -39.707031 L 19.996094 -39.707031 C 23.894531 -39.707031 26.714844 -39.292969 28.613281 -37.742188 C 30.105469 -36.503906 30.992188 -34.476562 30.992188 -31.433594 C 30.992188 -28.265625 30.167969 -26.144531 28.710938 -24.71875 Z M 28.710938 -24.71875 "/></g></g></g><g fill="#000000" fill-opacity="1"><g transform="translate(1531.482125, 1432.607656)"><g><path d="M 30.929688 -39.453125 L 30.929688 -44.617188 L 7.003906 -44.617188 L 7.003906 0 L 30.929688 0 L 30.929688 -5.164062 L 12.800781 -5.164062 L 12.800781 -19.742188 L 28.773438 -19.742188 L 28.773438 -24.84375 L 12.800781 -24.84375 L 12.800781 -39.453125 Z M 30.929688 -39.453125 "/></g></g></g><g fill="#000000" fill-opacity="1"><g transform="translate(1566.271172, 1432.607656)"><g><path d="M 26.109375 0.601562 C 34.921875 0.601562 42.335938 -3.738281 45.820312 -11.25 L 40.59375 -13.371094 C 37.867188 -7.859375 32.480469 -4.816406 26.109375 -4.816406 C 16.859375 -4.816406 9.539062 -11.15625 9.539062 -22.339844 C 9.539062 -33.464844 16.859375 -39.800781 26.109375 -39.800781 C 32.480469 -39.800781 37.867188 -36.726562 40.59375 -31.214844 L 45.820312 -33.367188 C 42.335938 -40.847656 34.921875 -45.21875 26.109375 -45.21875 C 13.53125 -45.21875 3.898438 -36.570312 3.898438 -22.339844 C 3.898438 -8.050781 13.53125 0.601562 26.109375 0.601562 Z M 26.109375 0.601562 "/></g></g></g><g fill="#000000" fill-opacity="1"><g transform="translate(1614.811082, 1432.607656)"><g><path d="M 7.003906 0 L 12.675781 0 L 12.675781 -44.617188 L 7.003906 -44.617188 Z M 7.003906 0 "/></g></g></g><g fill="#000000" fill-opacity="1"><g transform="translate(1634.486892, 1432.607656)"><g><path d="M 35.648438 0 L 41.574219 0 L 25.128906 -44.617188 L 18.347656 -44.617188 L 1.902344 0 L 7.828125 0 L 11.628906 -10.679688 L 31.816406 -10.679688 Z M 13.4375 -15.6875 L 21.738281 -38.914062 L 30.039062 -15.6875 Z M 13.4375 -15.6875 "/></g></g></g><g fill="#000000" fill-opacity="1"><g transform="translate(1677.957359, 1432.607656)"><g><path d="M 12.675781 -5.164062 L 12.675781 -44.617188 L 7.003906 -44.617188 L 7.003906 0 L 28.171875 0 L 28.171875 -5.164062 Z M 12.675781 -5.164062 "/></g></g></g><g fill="#000000" fill-opacity="1"><g transform="translate(1707.930436, 1432.607656)"><g><path d="M 7.003906 0 L 12.675781 0 L 12.675781 -44.617188 L 7.003906 -44.617188 Z M 7.003906 0 "/></g></g></g><g fill="#000000" fill-opacity="1"><g transform="translate(1727.606246, 1432.607656)"><g><path d="M 20.820312 0.601562 C 29.535156 0.601562 36.570312 -3.515625 36.570312 -12.074219 C 36.570312 -21.136719 28.425781 -23.226562 21.230469 -25.128906 C 15.433594 -26.617188 10.363281 -28.011719 10.363281 -32.988281 C 10.363281 -38.246094 15.050781 -40.308594 19.679688 -40.308594 C 24.84375 -40.308594 29.214844 -38.027344 30.578125 -33.019531 L 35.871094 -34.382812 C 34.191406 -41.859375 27.316406 -45.21875 19.457031 -45.21875 C 11.535156 -45.21875 4.660156 -41.132812 4.660156 -32.894531 C 4.660156 -24.652344 11.566406 -22.53125 18.539062 -20.660156 C 24.75 -18.980469 30.675781 -17.523438 30.769531 -11.914062 C 30.863281 -6.304688 25.953125 -4.277344 20.914062 -4.277344 C 14.863281 -4.277344 10.265625 -7.257812 8.90625 -12.546875 L 3.328125 -11.21875 C 4.847656 -3.835938 11.535156 0.601562 20.820312 0.601562 Z M 20.820312 0.601562 "/></g></g></g><g fill="#000000" fill-opacity="1"><g transform="translate(1767.876664, 1432.607656)"><g><path d="M 30.324219 -44.617188 L 1.773438 -44.617188 L 1.773438 -39.453125 L 13.246094 -39.453125 L 13.246094 0 L 18.886719 0 L 18.886719 -39.453125 L 30.324219 -39.453125 Z M 30.324219 -44.617188 "/></g></g></g><g fill="#000000" fill-opacity="1"><g transform="translate(1799.972607, 1432.607656)"><g><path d="M 20.820312 0.601562 C 29.535156 0.601562 36.570312 -3.515625 36.570312 -12.074219 C 36.570312 -21.136719 28.425781 -23.226562 21.230469 -25.128906 C 15.433594 -26.617188 10.363281 -28.011719 10.363281 -32.988281 C 10.363281 -38.246094 15.050781 -40.308594 19.679688 -40.308594 C 24.84375 -40.308594 29.214844 -38.027344 30.578125 -33.019531 L 35.871094 -34.382812 C 34.191406 -41.859375 27.316406 -45.21875 19.457031 -45.21875 C 11.535156 -45.21875 4.660156 -41.132812 4.660156 -32.894531 C 4.660156 -24.652344 11.566406 -22.53125 18.539062 -20.660156 C 24.75 -18.980469 30.675781 -17.523438 30.769531 -11.914062 C 30.863281 -6.304688 25.953125 -4.277344 20.914062 -4.277344 C 14.863281 -4.277344 10.265625 -7.257812 8.90625 -12.546875 L 3.328125 -11.21875 C 4.847656 -3.835938 11.535156 0.601562 20.820312 0.601562 Z M 20.820312 0.601562 "/></g></g></g></svg>