<svg xmlns="http://www.w3.org/2000/svg" xmlns:xlink="http://www.w3.org/1999/xlink" width="3779" zoomAndPan="magnify" viewBox="0 0 2835 2268.00001" height="3023" preserveAspectRatio="xMidYMid meet" version="1.0"><defs><g/><clipPath id="8fe4725772"><path d="M 0.625 0 L 2834.375 0 L 2834.375 2267 L 0.625 2267 Z M 0.625 0 " clip-rule="nonzero"/></clipPath><clipPath id="325bc4a238"><path d="M 822.242188 1461.378906 L 913.699219 1461.378906 L 913.699219 1552.835938 L 822.242188 1552.835938 Z M 822.242188 1461.378906 " clip-rule="nonzero"/></clipPath><clipPath id="5a04112ce8"><path d="M 1251.960938 774.929688 L 1334.425781 774.929688 L 1334.425781 857.394531 L 1251.960938 857.394531 Z M 1251.960938 774.929688 " clip-rule="nonzero"/></clipPath><clipPath id="ab3be337f2"><path d="M 1611.964844 670.882812 L 1738.65625 670.882812 L 1738.65625 797.574219 L 1611.964844 797.574219 Z M 1611.964844 670.882812 " clip-rule="nonzero"/></clipPath><clipPath id="a95fe12282"><path d="M 2030.230469 1445.816406 L 2180.167969 1445.816406 L 2180.167969 1595.75 L 2030.230469 1595.75 Z M 2030.230469 1445.816406 " clip-rule="nonzero"/></clipPath><clipPath id="2f657ec2ed"><path d="M 1455.644531 1069.777344 L 1515.617188 1069.777344 L 1515.617188 1129.753906 L 1455.644531 1129.753906 Z M 1455.644531 1069.777344 " clip-rule="nonzero"/></clipPath></defs><g clip-path="url(#8fe4725772)"><path fill="#ffffff" d="M 0.625 0 L 2834.375 0 L 2834.375 2274.496094 L 0.625 2274.496094 Z M 0.625 0 " fill-opacity="1" fill-rule="nonzero"/><path fill="#ffffff" d="M 0.625 0 L 2834.375 0 L 2834.375 2267 L 0.625 2267 Z M 0.625 0 " fill-opacity="1" fill-rule="nonzero"/><path fill="#ffffff" d="M 0.625 0 L 2834.375 0 L 2834.375 2267 L 0.625 2267 Z M 0.625 0 " fill-opacity="1" fill-rule="nonzero"/></g><path stroke-linecap="butt" transform="matrix(0.39309, -0.638559, 0.638404, 0.392995, 889.568383, 1466.603931)" fill="none" stroke-linejoin="miter" d="M -0.000484392 3.998883 L 965.769101 4.002041 " stroke="#38b6ff" stroke-width="8" stroke-opacity="1" stroke-miterlimit="4"/><g clip-path="url(#325bc4a238)"><path fill="#38b6ff" d="M 867.96875 1461.378906 C 842.714844 1461.378906 822.242188 1481.851562 822.242188 1507.109375 C 822.242188 1532.363281 842.714844 1552.835938 867.96875 1552.835938 C 893.226562 1552.835938 913.699219 1532.363281 913.699219 1507.109375 C 913.699219 1481.851562 893.226562 1461.378906 867.96875 1461.378906 " fill-opacity="1" fill-rule="nonzero"/></g><g clip-path="url(#5a04112ce8)"><path fill="#38b6ff" d="M 1293.195312 774.929688 C 1270.421875 774.929688 1251.960938 793.390625 1251.960938 816.164062 C 1251.960938 838.933594 1270.421875 857.394531 1293.195312 857.394531 C 1315.964844 857.394531 1334.425781 838.933594 1334.425781 816.164062 C 1334.425781 793.390625 1315.964844 774.929688 1293.195312 774.929688 " fill-opacity="1" fill-rule="nonzero"/></g><path stroke-linecap="butt" transform="matrix(-0.409921, -0.627761, 0.627697, -0.409879, 1438.92854, 1044.729702)" fill="none" stroke-linejoin="miter" d="M 0.00171752 3.998208 L 305.968481 3.998492 " stroke="#38b6ff" stroke-width="8" stroke-opacity="1" stroke-miterlimit="4"/><path stroke-linecap="butt" transform="matrix(-0.359694, -0.657966, 0.657793, -0.3596, 2066.622532, 1456.434431)" fill="none" stroke-linejoin="miter" d="M -0.000201695 4.000196 L 1011.734203 4.001822 " stroke="#38b6ff" stroke-width="8" stroke-opacity="1" stroke-miterlimit="4"/><path stroke-linecap="butt" transform="matrix(0.33069, -0.672722, 0.672778, 0.330718, 1519.537555, 1043.760625)" fill="none" stroke-linejoin="miter" d="M 0.00281336 4.001296 L 378.041952 3.99816 " stroke="#38b6ff" stroke-width="8" stroke-opacity="1" stroke-miterlimit="4"/><g clip-path="url(#ab3be337f2)"><path fill="#38b6ff" d="M 1675.308594 670.882812 C 1640.324219 670.882812 1611.964844 699.242188 1611.964844 734.230469 C 1611.964844 769.214844 1640.324219 797.574219 1675.308594 797.574219 C 1710.296875 797.574219 1738.65625 769.214844 1738.65625 734.230469 C 1738.65625 699.242188 1710.296875 670.882812 1675.308594 670.882812 " fill-opacity="1" fill-rule="nonzero"/></g><g clip-path="url(#a95fe12282)"><path fill="#38b6ff" d="M 2105.199219 1445.816406 C 2063.796875 1445.816406 2030.230469 1479.378906 2030.230469 1520.78125 C 2030.230469 1562.1875 2063.796875 1595.75 2105.199219 1595.75 C 2146.601562 1595.75 2180.167969 1562.1875 2180.167969 1520.78125 C 2180.167969 1479.378906 2146.601562 1445.816406 2105.199219 1445.816406 " fill-opacity="1" fill-rule="nonzero"/></g><path stroke-linecap="butt" transform="matrix(0.630524, -0.405439, 0.405462, 0.630559, 905.029421, 1479.90014)" fill="none" stroke-linejoin="miter" d="M 0.00156728 4.000213 L 834.06113 4.000755 " stroke="#38b6ff" stroke-width="8" stroke-opacity="1" stroke-miterlimit="4"/><path stroke-linecap="butt" transform="matrix(-0.619829, -0.421554, 0.421595, -0.619889, 2041.518441, 1481.11566)" fill="none" stroke-linejoin="miter" d="M 0.00140862 3.998051 L 807.086174 3.999401 " stroke="#38b6ff" stroke-width="8" stroke-opacity="1" stroke-miterlimit="4"/><g fill="#012c66" fill-opacity="1"><g transform="translate(324.788199, 1335.973996)"><g><path d="M 251.949219 -172.957031 L 12.90625 -172.957031 L 12.90625 0 L 53.695312 0 L 53.695312 -132.171875 L 112.035156 -131.914062 L 112.035156 0 L 152.824219 0 L 152.824219 -131.914062 L 211.164062 -132.171875 L 211.164062 0 L 251.949219 0 Z M 251.949219 -172.957031 "/></g></g></g><g fill="#012c66" fill-opacity="1"><g transform="translate(655.671257, 1335.973996)"><g><path d="M 53.695312 -172.957031 L 12.90625 -172.957031 L 12.90625 0 L 185.867188 0 L 185.867188 -172.957031 L 145.078125 -172.957031 L 145.078125 -40.789062 L 53.695312 -40.789062 Z M 53.695312 -172.957031 "/></g></g></g><g fill="#012c66" fill-opacity="1"><g transform="translate(920.484033, 1335.973996)"><g><path d="M 185.867188 0 L 185.867188 -40.789062 L 53.695312 -40.789062 L 53.695312 -172.957031 L 12.90625 -172.957031 L 12.90625 0 Z M 185.867188 0 "/></g></g></g><g fill="#012c66" fill-opacity="1"><g transform="translate(1185.29681, 1335.973996)"><g><path d="M 12.90625 -172.957031 L 12.90625 -132.171875 L 78.992188 -132.171875 L 78.992188 0 L 119.78125 0 L 119.78125 -132.171875 L 185.867188 -132.171875 L 185.867188 -172.957031 Z M 12.90625 -172.957031 "/></g></g></g><g fill="#012c66" fill-opacity="1"><g transform="translate(1450.109587, 1335.973996)"><g><path d="M 53.695312 -172.957031 L 12.90625 -172.957031 L 12.90625 0 L 53.695312 0 Z M 53.695312 -172.957031 "/></g></g></g><g fill="#012c66" fill-opacity="1"><g transform="translate(1582.781803, 1335.973996)"><g><path d="M 251.949219 -172.957031 L 12.90625 -172.957031 L 12.90625 0 L 53.695312 0 L 53.695312 -132.171875 L 112.035156 -131.914062 L 112.035156 0 L 152.824219 0 L 152.824219 -131.914062 L 211.164062 -132.171875 L 211.164062 0 L 251.949219 0 Z M 251.949219 -172.957031 "/></g></g></g><g fill="#012c66" fill-opacity="1"><g transform="translate(1913.66486, 1335.973996)"><g><path d="M 53.695312 -172.957031 L 12.90625 -172.957031 L 12.90625 0 L 53.695312 0 Z M 53.695312 -172.957031 "/></g></g></g><g fill="#012c66" fill-opacity="1"><g transform="translate(2046.337076, 1335.973996)"><g><path d="M 145.078125 -172.957031 L 145.078125 -79.765625 L 53.695312 -144.5625 L 53.695312 -172.957031 L 12.90625 -172.957031 L 12.90625 0 L 53.695312 0 L 53.695312 -92.933594 L 145.078125 -28.136719 L 145.078125 0 L 184.058594 0 L 185.867188 1.289062 L 185.867188 -172.957031 Z M 145.078125 -172.957031 "/></g></g></g><g fill="#012c66" fill-opacity="1"><g transform="translate(2311.149852, 1335.973996)"><g><path d="M 53.695312 -40.789062 L 53.695312 -106.871094 L 12.90625 -106.871094 L 12.90625 0 L 185.867188 0 L 185.867188 -172.957031 L 12.90625 -172.957031 L 12.90625 -132.171875 L 145.078125 -132.171875 L 145.078125 -40.789062 Z M 53.695312 -40.789062 "/></g></g></g><g clip-path="url(#2f657ec2ed)"><path fill="#38b6ff" d="M 1485.628906 1069.777344 C 1469.070312 1069.777344 1455.644531 1083.203125 1455.644531 1099.765625 C 1455.644531 1116.328125 1469.070312 1129.753906 1485.628906 1129.753906 C 1502.191406 1129.753906 1515.617188 1116.328125 1515.617188 1099.765625 C 1515.617188 1083.203125 1502.191406 1069.777344 1485.628906 1069.777344 " fill-opacity="1" fill-rule="nonzero"/></g></svg>